<?xml version="1.0" ?><!DOCTYPE svg  PUBLIC '-//W3C//DTD SVG 1.1//EN'  'http://www.w3.org/Graphics/SVG/1.1/DTD/svg11.dtd'><svg height="6.82666in" style="shape-rendering:geometricPrecision; text-rendering:geometricPrecision; image-rendering:optimizeQuality; fill-rule:evenodd; clip-rule:evenodd" viewBox="0 0 6827 6827" width="6.82666in" xml:space="preserve" xmlns="http://www.w3.org/2000/svg" xmlns:xlink="http://www.w3.org/1999/xlink"><defs><style type="text/css">
   <![CDATA[
    .fil5 {fill:none}
    .fil2 {fill:#013668}
    .fil0 {fill:#80CBC4}
    .fil4 {fill:#F6FFFD}
    .fil3 {fill:#FAC23C}
    .fil1 {fill:#013668;fill-rule:nonzero}
   ]]>
  </style></defs><g id="Layer_x0020_1"><path class="fil0" d="M2050 4020l2726 0c44,0 80,36 80,80 0,16 -5,32 -13,44 -216,395 -490,674 -787,836 -207,112 -424,169 -642,169 -218,0 -435,-56 -642,-169 -299,-163 -574,-443 -791,-842 -21,-39 -7,-87 32,-108 12,-7 25,-10 38,-10l0 0zm2703 -1784l0 0zm-954 512l954 -512c10,-5 22,-9 34,-9 44,-2 82,32 84,76 34,643 -283,846 -593,862 -120,6 -238,-17 -333,-54 -103,-40 -182,-99 -214,-159 -42,-78 -27,-152 68,-203zm-2151 -626c0,0 0,0 0,0 0,0 0,0 0,0zm-5 6c2,-2 3,-4 5,-6 -1,2 -3,4 -5,6zm4037 1417c0,-538 -187,-1031 -500,-1420 -51,-64 -106,-125 -164,-183 -17,-17 -34,-34 -52,-50 -77,-72 -159,-139 -246,-201 -36,-25 -45,-75 -19,-111 9,-13 22,-23 36,-28 11,-5 24,-11 37,-17 -388,-263 -856,-416 -1359,-416 -504,0 -971,153 -1359,416 -86,-42 -203,-108 -319,-201 -133,-107 -262,-249 -338,-431 -17,-41 -64,-60 -104,-43 -26,11 -43,34 -48,60l0 0c0,2 -139,757 231,1163 10,11 21,22 32,33 1,1 3,3 4,4 5,5 6,6 7,7l11 10c33,29 83,26 113,-7 -311,388 -497,881 -497,1417 0,626 254,1193 664,1603 410,410 977,664 1603,664 626,0 1193,-254 1603,-664 410,-410 664,-977 664,-1603zm-3928 -1770c-61,57 -119,118 -174,181 0,0 0,0 0,0 -181,-214 -207,-541 -199,-764 76,104 166,192 256,265 96,77 193,137 275,182 0,0 0,0 0,0 -55,43 -107,89 -158,136zm321 460l954 512c95,51 110,125 68,203 -32,60 -112,119 -214,159 -95,37 -213,60 -333,54 -309,-16 -627,-220 -593,-862 2,-44 40,-78 84,-76 12,1 24,4 34,9z"/><g id="_272712328"><path class="fil1" d="M3413 1119c670,0 1277,272 1716,711 439,439 711,1046 711,1716 0,670 -272,1277 -711,1716 -439,439 -1046,711 -1716,711 -670,0 -1277,-272 -1716,-711 -439,-439 -711,-1046 -711,-1716 0,-670 272,-1277 711,-1716 439,-439 1046,-711 1716,-711zm1603 824c-410,-410 -977,-664 -1603,-664 -626,0 -1193,254 -1603,664 -410,410 -664,977 -664,1603 0,626 254,1193 664,1603 410,410 977,664 1603,664 626,0 1193,-254 1603,-664 410,-410 664,-977 664,-1603 0,-626 -254,-1193 -664,-1603z"/><path class="fil1" d="M4843 4144c-216,395 -490,674 -787,836 -207,112 -424,169 -642,169 -218,0 -435,-56 -642,-169 -299,-163 -574,-443 -791,-842 -21,-39 -7,-87 32,-108 12,-7 25,-10 38,-10l0 0 2726 0c44,0 80,36 80,80 0,16 -5,32 -13,44zm-864 696c243,-132 470,-352 659,-660l-2449 0c189,308 416,528 659,660 182,99 374,149 566,149 192,0 384,-50 566,-149z"/><path class="fil1" d="M4736 1552c87,-40 223,-112 356,-219 133,-107 262,-249 338,-431 17,-41 64,-60 104,-43 26,11 43,34 48,60l0 0c0,2 147,799 -264,1196 -1,1 -3,3 -4,4 -5,5 -6,6 -7,7 -1,1 -5,4 -11,10 -33,29 -84,26 -113,-8 -1,-1 -1,-2 -2,-3l0 0c-67,-83 -139,-161 -216,-233 -77,-72 -159,-139 -246,-201 -36,-25 -45,-75 -19,-111 9,-13 22,-23 36,-28zm456 -94c-96,77 -193,138 -275,182 55,43 107,89 158,136 61,57 119,118 174,181 181,-214 207,-541 199,-765 -76,104 -166,192 -256,265z"/><path class="fil1" d="M1911 1640c-82,-45 -179,-105 -275,-182 -91,-73 -180,-161 -256,-265 -7,224 19,551 199,765 55,-63 113,-124 174,-181 51,-48 104,-93 158,-136zm-175 -307c133,107 268,179 356,219 14,6 27,15 36,28 25,36 17,86 -19,111 -87,61 -169,128 -246,201 -76,72 -148,148 -213,230 -2,2 -3,4 -5,6 -29,33 -80,36 -113,7 -2,-1 -5,-5 -11,-10 -1,-1 -2,-2 -7,-7 -1,-1 -3,-2 -4,-4 -410,-397 -264,-1194 -264,-1196l0 0c5,-26 22,-49 48,-60 41,-17 87,2 104,43 75,182 205,324 338,431z"/><path class="fil1" d="M4713 2439l-834 447c20,25 65,52 125,75 76,30 171,48 266,43 211,-11 427,-148 443,-566zm-913 309l954 -512 0 0c10,-5 22,-9 34,-9 44,-2 82,32 84,76 34,643 -283,846 -593,862 -120,6 -238,-17 -333,-54 -103,-40 -182,-99 -214,-159 -42,-78 -27,-152 68,-203z"/><path class="fil1" d="M2073 2236l954 512c95,51 110,125 68,203 -32,60 -112,119 -214,159 -95,37 -213,60 -333,54 -309,-16 -627,-220 -593,-862 2,-44 40,-78 84,-76 12,1 24,4 34,9l0 0zm874 650l-834 -447c15,418 231,555 443,566 96,5 190,-14 266,-43 59,-23 104,-51 125,-75z"/><polygon class="fil2" points="2812,4100 2726,4380 2641,4100 "/><polygon class="fil2" points="4186,4100 4100,4380 4014,4100 "/><polygon class="fil2" points="2946,4927 2860,4513 2768,4814 "/><polygon class="fil2" points="4061,4818 3967,4513 3881,4927 "/></g><path class="fil3" d="M1697 1830c67,-67 139,-131 213,-190 -82,-45 -179,-105 -275,-182 -91,-73 -180,-161 -256,-265 -7,224 19,551 199,764 38,-44 77,-86 118,-127z"/><path class="fil3" d="M5191 1458c-96,77 -193,137 -275,182 75,59 146,122 213,190 41,41 80,83 118,127 181,-214 207,-541 199,-764 -76,104 -166,192 -256,265z"/><path class="fil3" d="M4713 2439l-834 447c20,25 65,52 125,75 76,30 171,48 266,43 211,-11 427,-148 443,-566z"/><path class="fil3" d="M2947 2886l-834 -447c15,418 231,555 443,566 96,5 190,-14 266,-43 59,-23 104,-51 125,-75z"/><path class="fil4" d="M4039 4180l-1251 0 -61 200 -61 -200 -476 0c170,276 370,482 585,617l87 -283 77 371c155,70 316,104 476,104 161,0 321,-35 476,-104l77 -371 87 283c215,-135 415,-340 584,-616l-476 0 -61 200 -61 -200z"/></g><rect class="fil5" height="6827" width="6827"/></svg>